<?xml version="1.0" encoding="UTF-8"?>
<svg role="img" viewBox="0 0 50 50" xmlns="http://www.w3.org/2000/svg"><title>Claro Música</title><g fill="#FFFFFF" fill-rule="evenodd" stroke="none">
<path d="m 16.95575,42.140188 c -5.63875,0 -10.210625,-4.646875 -10.210625,-10.379376 0,-5.7325 4.571875,-10.379375 10.210625,-10.379375 4.171875,0 7.75375,2.54625 9.338125,6.19125 h 7.136875 c -1.800625,-7.553125 -8.491875,-13.163124 -16.475,-13.163124 -9.364375,0 -16.955625,7.716875 -16.955625,17.23625 0,9.519375 7.59125,17.23625 16.955625,17.23625 7.73125,0 14.249375,-5.262501 16.289375,-12.454376 H 26.067 c -1.681875,3.385626 -5.125625,5.712501 -9.11125,5.712501"/>
<polygon points="36.295625,15.294438 36.295625,48.881937 43,48.881937 43,15.294438"/>
</g></svg>
