<svg role="img" viewBox="0 0 286 50" xmlns="http://www.w3.org/2000/svg"><title>Claro Música</title><g fill="#FFFFFF" fill-rule="evenodd" stroke="none">
<path d="m 102.92713,42.659875 c -4.018755,0 -7.27688,-3.258125 -7.27688,-7.276875 0,-4.01875 3.258125,-7.27625 7.27688,-7.27625 4.01875,0 7.27687,3.2575 7.27687,7.27625 0,4.01875 -3.25812,7.276875 -7.27687,7.276875 m -0.0338,-21.053125 c -7.587505,0 -13.738755,6.15125 -13.738755,13.739375 0,7.5875 6.15125,13.73875 13.738755,13.73875 7.58749,0 13.73875,-6.15125 13.73875,-13.73875 0,-7.588125 -6.15126,-13.739375 -13.73875,-13.739375"/>
<path d="m 88.567063,21.993687 v 6.396876 c -5.132501,0 -6.460626,1.644375 -7.401875,3.415624 -0.526251,0.996251 -0.87875,2.365001 -0.87875,4.436875 V 48.602437 H 73.417062 V 23.055562 h 6.742501 l 6.25e-4,2.720625 c 2.451874,-3.136875 5.603749,-3.89 8.406875,-3.7825"/>
<path d="m 62.429062,35.606375 c -0.425625,0.26875 -0.855,0.485 -1.28875,0.650625 -0.43375,0.165625 -1.028125,0.319375 -1.784374,0.46125 l -1.51375,0.28375 c -1.418126,0.253125 -2.436876,0.560625 -3.055625,0.923125 -1.04625,0.615 -1.57,1.57 -1.57,2.863125 0,1.151875 0.319375,1.98375 0.959375,2.49625 0.639374,0.513125 1.416874,0.769375 2.332499,0.769375 1.4525,0 2.790625,-0.42625 4.014375,-1.278125 1.223751,-0.851875 1.85875,-2.405 1.90625,-4.66125 z m -4.064374,-3.1475 c 1.237499,-0.1575 2.121874,-0.354375 2.655,-0.590625 0.955,-0.410625 1.433124,-1.049375 1.433124,-1.916875 0,-1.056875 -0.36625,-1.786875 -1.099375,-2.18875 -0.733125,-0.4025 -1.808749,-0.60375 -3.226875,-0.60375 -1.591875,0 -2.719375,0.394375 -3.380625,1.183125 -0.47375,0.58375 -0.788749,1.3725 -0.94625,2.36625 h -6.41375 c 0.14,-2.255625 0.765,-4.109375 1.87375,-5.560625 1.764375,-2.27125 4.794375,-3.4075 9.088751,-3.4075 2.794999,0 5.278749,0.56 7.449375,1.68 2.170624,1.120625 3.255624,3.23375 3.255624,6.341875 v 11.83125 c 0,0.82 -0.01188,7.105 -0.01188,7.105 l -6.6125,0.11625 c 0,-0.5675 0,-1.785625 -6.25e-4,-2.365625 -1.956875,1.803125 -4.905,2.503125 -7.859375,2.503125 -2.314999,0 -4.22625,-0.666875 -5.735624,-1.999375 -1.509376,-1.333125 -2.263751,-3.221875 -2.263751,-5.6675 0,-3.170625 1.21375,-5.46625 3.64125,-6.885625 1.331875,-0.7725 3.29,-1.325 5.874375,-1.65625 z"/>
<polygon points="100.52,6.25e-05 100.52,16.862562 106.6525,16.862562 106.6525,6.25e-05"/>
<polygon points="120.71937,29.201313 120.71937,35.248812 135.97375,35.248812 135.97375,29.201313"/>
<polygon points="131.87694,8.8465 117.71381,23.009625 113.34131,18.637125 127.50506,4.474"/>
<path d="m 16.95575,42.140188 c -5.63875,0 -10.210625,-4.646875 -10.210625,-10.379376 0,-5.7325 4.571875,-10.379375 10.210625,-10.379375 4.171875,0 7.75375,2.54625 9.338125,6.19125 h 7.136875 c -1.800625,-7.553125 -8.491875,-13.163124 -16.475,-13.163124 -9.364375,0 -16.955625,7.716875 -16.955625,17.23625 0,9.519375 7.59125,17.23625 16.955625,17.23625 7.73125,0 14.249375,-5.262501 16.289375,-12.454376 H 26.067 c -1.681875,3.385626 -5.125625,5.712501 -9.11125,5.712501"/>
<polygon points="36.295625,15.294438 36.295625,48.881937 43,48.881937 43,15.294438"/>
<path d="m 177.51606,24.647187 c -1.85437,-1.576875 -3.93312,-2.376875 -6.17437,-2.376875 -0.0488,-6.25e-4 -0.0975,-6.25e-4 -0.14625,-6.25e-4 -3.25375,0 -5.93063,1.054375 -7.96688,3.135625 -0.82312,-0.8475 -1.72812,-1.569375 -2.71125,-2.15875 -1.15812,-0.613125 -2.68687,-0.941875 -4.55187,-0.97625 -2.50688,0 -4.62313,0.800625 -6.3075,2.381875 v -2.059375 h -6.0275 v 26.747501 h 6.02312 V 33.492187 c 0,-1.67125 0.44188,-2.898125 1.36438,-3.76125 0.8675,-0.86875 1.9625,-1.290625 3.34875,-1.290625 1.3875,0 2.49125,0.423125 3.37625,1.293125 0.85375,0.84125 1.28687,2.10625 1.28687,3.75875 v 15.848126 h 6.01875 V 33.492187 c 0,-1.649999 0.4475,-2.9125 1.33625,-3.758125 0.88438,-0.870625 1.98938,-1.29375 3.3775,-1.29375 1.38563,0 2.48,0.421875 3.35125,1.293125 0.85375,0.84125 1.28688,2.10625 1.28688,3.75875 v 15.848126 h 6.0225 V 31.715937 c -0.0694,-3.076874 -1.04563,-5.454375 -2.90688,-7.06875"/>
<polygon points="196.68488,19.686625 202.22737,11.415375 195.56363,11.30975 192.41175,19.686625"/>
<path d="m 199.3715,38.186937 c 0,1.737501 -0.0369,2.558751 -0.72875,3.826875 -0.4725,0.86625 -1.685,1.936875 -3.48188,1.95375 -1.65437,0.01563 -2.92125,-0.7425 -3.68687,-1.90625 -0.47813,-0.726875 -0.65813,-2.136874 -0.65813,-3.874375 v -14.325 h -6.36812 v 17.123125 c 0.0344,2.902501 1.01812,5.096251 2.9525,6.581251 1.77812,1.517499 3.7725,2.292499 5.98,2.325624 2.84,0 4.63375,-1.01625 6.39625,-3.049375 h 0.1025 v 2.751875 h 5.86 v -25.7325 h -6.3675 z"/>
<path d="m 223.66719,32.986437 -4.1225,-0.321249 c -1.09563,-0.119376 -1.85188,-0.379376 -2.24688,-0.773125 l -0.0387,-0.035 c -0.405,-0.328751 -0.58312,-0.675001 -0.55812,-1.120001 0,-0.763124 0.26625,-1.369375 0.82437,-1.860624 0.52563,-0.486876 1.51875,-0.733751 2.95188,-0.733751 1.30812,0 2.47625,0.198125 3.455,0.583125 1.03437,0.45 2.02875,1.028125 2.95562,1.71875 l 0.38625,0.288125 3.72438,-4.48875 -0.36438,-0.32625 c -1.255,-1.1225 -2.69375,-2.028125 -4.29625,-2.69875 -0.82375,-0.30625 -1.71812,-0.5475 -2.665,-0.71875 -0.93625,-0.1525 -2.00687,-0.23 -3.18187,-0.23 -2.76063,0 -5.08,0.703125 -6.88813,2.08375 -1.90375,1.41625 -2.88625,3.553125 -2.91937,6.365625 0.0331,2.334376 0.785,4.184375 2.22562,5.491251 1.39313,1.331874 3.21875,2.111874 5.43,2.320625 l 4.45375,0.398125 c 0.83,0.03063 1.4925,0.209999 1.97438,0.535624 0.3975,0.265625 0.59187,0.76 0.59187,1.511251 0,0.863124 -0.37125,1.517499 -1.13562,2.000625 -0.82875,0.52375 -1.92813,0.789375 -3.26875,0.789375 -3.06438,0 -5.59625,-1.055625 -7.525,-3.137501 l -0.36063,-0.39 -4.23125,4.295625 0.3775,0.356251 c 3.3325,3.149999 7.14375,4.747499 11.33125,4.747499 3.0875,-0.03437 5.6675,-0.785 7.66,-2.22625 2.06938,-1.449375 3.13625,-3.533125 3.17063,-6.199375 0,-2.24 -0.5775,-4.123125 -1.725,-5.606875 -1.24063,-1.529375 -3.255,-2.410624 -5.985,-2.619375"/>
<polygon points="235.0725,22.593187 235.0725,49.340688 241.09062,49.340688 241.09062,22.593187"/>
<path d="m 238.08125,12.15575 c -2.27938,0 -4.13375,1.854375 -4.13375,4.13375 0,2.279375 1.85437,4.13375 4.13375,4.13375 2.27875,0 4.13312,-1.854375 4.13312,-4.13375 0,-2.279375 -1.85437,-4.13375 -4.13312,-4.13375"/>
<path d="m 260.56594,40.993625 c -1.17625,1.635 -2.70125,2.445 -4.66438,2.475 -1.73375,0.045 -3.08812,-0.419375 -4.04437,-1.34625 -1.24125,-1.2025 -1.88813,-3.2675 -1.92188,-6.125 0.0344,-2.895625 0.68438,-4.98 1.93313,-6.195 0.95562,-0.930625 2.31375,-1.38 4.0275,-1.3625 1.96562,0.06188 3.49375,0.880625 4.6725,2.501875 l 0.33375,0.460625 4.46875,-4.094375 -0.29813,-0.37125 c -1.12562,-1.39875 -2.4675,-2.53125 -3.995,-3.36875 -1.5375,-0.826875 -3.335,-1.263125 -5.34562,-1.298125 -3.05125,-0.02437 -5.79,1.0375 -8.09813,3.181875 -2.4,2.1875 -3.65062,5.731875 -3.71687,10.54625 0.0662,4.754375 1.31687,8.256875 3.71062,10.405625 2.3075,2.14625 5.03,3.234375 8.0975,3.234375 2.015,-0.03437 3.81813,-0.49625 5.35125,-1.369375 1.52188,-0.831875 2.86313,-1.924375 3.98813,-3.24875 l 0.31562,-0.371875 -4.48,-4.11875 z"/>
<path d="m 280.18081,38.43075 v 1.353125 c 0,1.725 -0.33187,2.866875 -0.94187,3.291875 -0.77688,0.489375 -2.17688,0.721875 -4.17875,0.690625 -1.52688,0 -2.61563,-0.29625 -3.26375,-0.904375 -0.63438,-0.515 -0.94313,-1.11625 -0.94313,-1.84625 -0.0175,-1.0725 0.36,-2.506875 3.82188,-2.585 z m 2.93875,-14.24 c -1.95,-1.308125 -4.55937,-1.9675 -7.78312,-1.920625 -3.85188,-0.0575 -6.83938,1.26125 -8.8375,3.9525 l -0.29375,0.39625 4.78562,3.770625 0.29375,-0.508125 c 0.3775,-0.654375 0.87938,-1.105625 1.5125,-1.371875 0.66,-0.243125 1.59438,-0.366875 2.7875,-0.366875 1.92188,-0.04125 3.2525,0.30125 3.95938,1.00625 0.44,0.4375 0.64812,1.023125 0.63687,1.799375 v 2.2075 h -6.43437 c -2.7875,0.035 -4.94375,0.83875 -6.40688,2.385 -1.46437,1.513125 -2.20625,3.44125 -2.20625,5.7325 0,2.40125 0.85438,4.403125 2.52625,5.9375 1.59313,1.57625 3.87563,2.3925 6.78938,2.4275 1.76,0 3.16937,-0.231875 4.18187,-0.684375 0.60125,-0.255 1.12,-0.593125 1.55,-1.01125 v 1.398125 h 6.01813 v -18.09 c -0.0337,-3.3 -1.0675,-5.67375 -3.07938,-7.06 z"/>
</g></svg>
