<svg role="img" viewBox="0 0 24 24" xmlns="http://www.w3.org/2000/svg"><title>JOOX</title><g fill="#FFFFFF" fill-rule="evenodd" transform="translate(12,12) scale(0.069) translate(-691,-190.5)">
<path d="M 634.78 17.55 C 672.47 8.35 713.18 11.54 748.75 27.19 C 781.56 41.44 809.84 65.86 828.77 96.20 C 847.62 126.10 857.13 161.75 855.72 197.06 C 854.69 230.21 844.01 262.96 825.39 290.40 C 804.92 320.81 774.85 344.65 740.53 357.55 C 706.07 370.66 667.48 372.55 631.86 363.09 C 603.09 355.50 576.28 340.56 554.80 319.96 C 575.74 293.55 590.29 262.08 596.35 228.90 C 601.86 239.43 608.66 249.44 617.66 257.31 C 631.79 270.06 650.05 278.26 669.04 279.92 C 683.93 281.36 699.19 279.08 712.91 273.05 C 732.04 264.98 748.04 249.89 757.44 231.40 C 771.59 204.06 770.19 169.36 753.67 143.36 C 743.22 126.54 727.07 113.26 708.41 106.56 C 690.38 99.81 670.16 99.39 651.74 104.82 C 636.55 109.49 622.58 118.14 611.86 129.90 C 605.43 136.42 600.88 144.41 596.34 152.28 C 593.09 135.67 588.17 119.33 580.93 104.01 C 574.10 88.69 564.88 74.61 554.82 61.25 C 577.22 40.22 604.90 24.84 634.78 17.55 Z"/>
</g></svg>
