<svg xmlns="http://www.w3.org/2000/svg" viewBox="200 130 75 75" role="img"><title>Joox</title><g fill="#FFFFFF" fill-rule="nonzero" transform="matrix(.322683 0 0 .322683 97.8792 138.458)"><path d="m366.39 14.28c30.76-4.41 62.73-.99 91.61 10.63 42.36 16.59 77.63 50.16 96.49 91.53 15.85 34.3 20.01 73.68 12.45 110.64-7.39 35.51-25.87 68.69-52.45 93.4-1.21 1.22-2.73 2.52-2.46 4.44-.11 13.22.02 26.44-.03 39.66-16.44-2.6-32.69-6.31-49.08-9.17-3.98-.01-7.5 2.33-11.24 3.43-27.32 9.74-57.05 12.49-85.72 8.24-34.69-5.07-67.71-20.79-93.56-44.45-23.14-20.97-40.63-48.12-50.05-77.89-11.83-37.21-11.11-78.36 2.39-115.01 10.7-29.6 29.51-56.18 53.73-76.25 24.96-20.82 55.74-34.56 87.92-39.2m83.51 34.7c4.44 3.35 9.33 6.04 13.81 9.33 14.99 10.74 29.01 22.89 41.59 36.39 12.55 13.37 23.55 28.11 33.73 43.34-8.59-32.54-29.72-62.38-59.62-78.51-9.27-4.85-19.05-9.19-29.51-10.55m2.7 21.96c3.61 2.95 7.68 5.25 11.43 7.99 16.3 11.81 30.84 26.02 43.13 41.95 4.13 5.32 7.68 11.05 11.79 16.39-4.27-16.07-12.56-31.12-24.12-43.09-11.47-11.49-26.1-20.41-42.23-23.24m-1.68 21.16c11.64 8.13 23.16 16.76 32.19 27.84 5.45 5.95 9.97 12.64 14.75 19.11-2.28-7.71-5.4-15.25-10.01-21.87-8.53-12.63-21.88-22.17-36.93-25.08m-68.47 9.49c-15.71 1.72-30.99 7.71-43.63 17.22-16.18 11.89-28.06 29.49-33.14 48.91-4.79 17.97-3.86 37.48 2.83 54.86 6.25 16.43 17.44 30.96 31.8 41.11 15.19 10.99 33.96 16.81 52.68 16.65 19.33-.06 38.58-6.68 53.86-18.52 17.6-13.28 29.78-33.41 33.71-55.08 3.15-17.71 1.01-36.4-6.47-52.79-8.57-19.13-24.1-35.06-43.02-44.08-15-7.29-32.06-10.05-48.62-8.28m-138.38 139.35c4.63 25.15 19.62 47.65 39.12 63.85 14.63 11.72 31.7 20.62 49.88 25.26-8.58-6.08-17.56-11.65-25.63-18.45-20.72-16.54-39.2-35.9-54.48-57.58-3.07-4.29-5.64-8.92-8.89-13.08m22.04 2.75c1.88 11.15 6.98 21.54 13.43 30.74 12.58 17.67 31.9 29.98 52.71 35.58-5.05-4.1-10.67-7.44-15.79-11.46-18.6-14.29-34.98-31.59-47.69-51.33-.84-1.22-1.74-2.39-2.66-3.53m21.8-.32c1.14 7.78 4.91 14.92 9.46 21.22 8.87 12.15 22.36 20.42 36.76 24.32-4.1-3.27-8.58-6.04-12.72-9.28-8.7-6.91-16.75-14.66-23.68-23.36-3.53-4.11-6.11-8.94-9.82-12.9z"/><path d="m386.39 168.5c6.36-1.79 13.66-.94 18.98 3.15 7.04 5.01 10.4 14.5 8.1 22.82-2.26 9.08-11.04 16.07-20.44 15.85-8.39.35-16.55-5.01-19.87-12.65-2.77-6.14-2.44-13.62 1.02-19.42 2.69-4.6 7.16-8.1 12.21-9.75z"/></g></svg>
