<svg role="img" viewBox="0 0 1128 384" xmlns="http://www.w3.org/2000/svg"><title>JOOX</title><g fill="#FFFFFF" fill-rule="evenodd">
<path d="M 366.39 14.28 C 397.15 9.87 429.12 13.29 458.00 24.91 C 500.36 41.50 535.63 75.07 554.49 116.44 C 570.34 150.74 574.50 190.12 566.94 227.08 C 559.55 262.59 541.07 295.77 514.49 320.48 C 513.28 321.70 511.76 323.00 512.03 324.92 C 511.92 338.14 512.05 351.36 512.00 364.58 C 495.56 361.98 479.31 358.27 462.92 355.41 C 458.94 355.40 455.42 357.74 451.68 358.84 C 424.36 368.58 394.63 371.33 365.96 367.08 C 331.27 362.01 298.25 346.29 272.40 322.63 C 249.26 301.66 231.77 274.51 222.35 244.74 C 210.52 207.53 211.24 166.38 224.74 129.73 C 235.44 100.13 254.25 73.55 278.47 53.48 C 303.43 32.66 334.21 18.92 366.39 14.28 M 449.90 48.98 C 454.34 52.33 459.23 55.02 463.71 58.31 C 478.70 69.05 492.72 81.20 505.30 94.70 C 517.85 108.07 528.85 122.81 539.03 138.04 C 530.44 105.50 509.31 75.66 479.41 59.53 C 470.14 54.68 460.36 50.34 449.90 48.98 M 452.60 70.94 C 456.21 73.89 460.28 76.19 464.03 78.93 C 480.33 90.74 494.87 104.95 507.16 120.88 C 511.29 126.20 514.84 131.93 518.95 137.27 C 514.68 121.20 506.39 106.15 494.83 94.18 C 483.36 82.69 468.73 73.77 452.60 70.94 M 450.92 92.10 C 462.56 100.23 474.08 108.86 483.11 119.94 C 488.56 125.89 493.08 132.58 497.86 139.05 C 495.58 131.34 492.46 123.80 487.85 117.18 C 479.32 104.55 465.97 95.01 450.92 92.10 M 382.45 101.59 C 366.74 103.31 351.46 109.30 338.82 118.81 C 322.64 130.70 310.76 148.30 305.68 167.72 C 300.89 185.69 301.82 205.20 308.51 222.58 C 314.76 239.01 325.95 253.54 340.31 263.69 C 355.50 274.68 374.27 280.50 392.99 280.34 C 412.32 280.28 431.57 273.66 446.85 261.82 C 464.45 248.54 476.63 228.41 480.56 206.74 C 483.71 189.03 481.57 170.34 474.09 153.95 C 465.52 134.82 449.99 118.89 431.07 109.87 C 416.07 102.58 399.01 99.82 382.45 101.59 M 244.07 240.94 C 248.70 266.09 263.69 288.59 283.19 304.79 C 297.82 316.51 314.89 325.41 333.07 330.05 C 324.49 323.97 315.51 318.40 307.44 311.60 C 286.72 295.06 268.24 275.70 252.96 254.02 C 249.89 249.73 247.32 245.10 244.07 240.94 M 266.11 243.69 C 267.99 254.84 273.09 265.23 279.54 274.43 C 292.12 292.10 311.44 304.41 332.25 310.01 C 327.20 305.91 321.58 302.57 316.46 298.55 C 297.86 284.26 281.48 266.96 268.77 247.22 C 267.93 246.00 267.03 244.83 266.11 243.69 M 287.91 243.37 C 289.05 251.15 292.82 258.29 297.37 264.59 C 306.24 276.74 319.73 285.01 334.13 288.91 C 330.03 285.64 325.55 282.87 321.41 279.63 C 312.71 272.72 304.66 264.97 297.73 256.27 C 294.20 252.16 291.62 247.33 287.91 243.37 Z"/>
<path d="M 634.78 17.55 C 672.47 8.35 713.18 11.54 748.75 27.19 C 781.56 41.44 809.84 65.86 828.77 96.20 C 847.62 126.10 857.13 161.75 855.72 197.06 C 854.69 230.21 844.01 262.96 825.39 290.40 C 804.92 320.81 774.85 344.65 740.53 357.55 C 706.07 370.66 667.48 372.55 631.86 363.09 C 603.09 355.50 576.28 340.56 554.80 319.96 C 575.74 293.55 590.29 262.08 596.35 228.90 C 601.86 239.43 608.66 249.44 617.66 257.31 C 631.79 270.06 650.05 278.26 669.04 279.92 C 683.93 281.36 699.19 279.08 712.91 273.05 C 732.04 264.98 748.04 249.89 757.44 231.40 C 771.59 204.06 770.19 169.36 753.67 143.36 C 743.22 126.54 727.07 113.26 708.41 106.56 C 690.38 99.81 670.16 99.39 651.74 104.82 C 636.55 109.49 622.58 118.14 611.86 129.90 C 605.43 136.42 600.88 144.41 596.34 152.28 C 593.09 135.67 588.17 119.33 580.93 104.01 C 574.10 88.69 564.88 74.61 554.82 61.25 C 577.22 40.22 604.90 24.84 634.78 17.55 Z"/>
<path d="M 93.01 17.70 C 119.01 17.48 145.00 17.70 171.00 17.59 C 174.57 17.56 178.14 17.61 181.70 17.87 C 181.63 96.59 181.70 175.31 181.67 254.03 C 181.48 278.31 172.64 302.41 157.03 321.01 C 137.41 344.87 106.94 359.54 75.99 359.47 C 52.90 359.40 29.80 359.63 6.71 359.35 C 6.51 329.86 6.55 300.37 6.69 270.89 C 29.49 270.74 52.28 270.91 75.07 270.82 C 84.54 271.03 93.24 262.63 92.98 253.08 C 93.03 174.62 92.97 96.16 93.01 17.70 Z"/>
<path d="M 833.62 17.81 C 863.05 17.40 892.51 17.64 921.95 17.69 C 938.69 46.75 955.37 75.86 972.03 104.98 C 972.94 106.52 973.91 108.04 974.91 109.55 C 992.48 79.78 1009.35 49.59 1026.65 19.65 C 1027.68 16.99 1030.69 17.70 1032.97 17.57 C 1060.73 17.79 1088.51 17.33 1116.27 17.80 C 1106.30 36.16 1095.54 54.10 1085.27 72.30 C 1063.40 110.62 1041.21 148.78 1019.56 187.20 C 1022.46 194.01 1026.86 200.11 1030.36 206.64 C 1054.37 248.64 1078.49 290.57 1102.52 332.55 C 1109.01 344.14 1115.92 355.48 1122.22 367.17 C 1105.82 367.47 1089.40 367.21 1073.00 367.30 C 1060.05 367.13 1047.07 367.62 1034.15 367.09 C 1030.72 363.59 1029.03 358.75 1026.39 354.66 C 1009.21 324.85 992.35 294.86 974.93 265.20 C 967.73 276.71 961.35 288.72 954.48 300.43 C 944.79 317.41 934.99 334.34 925.29 351.32 C 922.03 356.50 919.64 362.27 915.84 367.08 C 898.25 367.61 880.61 367.14 863.00 367.30 C 851.23 367.20 839.46 367.51 827.70 367.13 C 835.79 351.93 844.75 337.22 853.17 322.20 C 875.31 283.67 897.37 245.10 919.49 206.56 C 922.94 200.03 927.35 193.96 930.18 187.14 C 902.87 138.82 874.99 90.77 847.45 42.56 C 842.89 34.28 837.73 26.32 833.62 17.81 Z"/>
<path d="M 386.39 168.50 C 392.75 166.71 400.05 167.56 405.37 171.65 C 412.41 176.66 415.77 186.15 413.47 194.47 C 411.21 203.55 402.43 210.54 393.03 210.32 C 384.64 210.67 376.48 205.31 373.16 197.67 C 370.39 191.53 370.72 184.05 374.18 178.25 C 376.87 173.65 381.34 170.15 386.39 168.50 Z"/>
</g></svg>
