<svg role="img" viewBox="0 0 24 24" xmlns="http://www.w3.org/2000/svg"><title>SoundCloud</title><path fill="#FFFFFF" d="M1.175 12.225c-.051 0-.094.046-.101.1l-.233 2.154.233 2.105c.007.058.05.098.101.098.05 0 .09-.04.099-.098l.255-2.105-.27-2.154c-.009-.06-.052-.1-.099-.1m.902.004c-.051 0-.096.04-.102.098L1.5 14.479l.276 2.104c.006.058.05.099.101.099.049 0 .091-.041.098-.099l.277-2.104-.277-2.152c-.007-.06-.049-.098-.098-.098m.894.006c-.05 0-.092.04-.099.098l-.277 2.104.277 2.105c.007.058.048.098.099.098.051 0 .094-.04.101-.098l.254-2.105-.254-2.154c-.007-.06-.043-.099-.099-.099m.93 0c-.057 0-.09.04-.099.099l-.254 2.154.254 2.105c.009.058.042.098.099.098.051 0 .096-.04.102-.098l.275-2.105-.275-2.154c-.006-.06-.051-.099-.102-.099m.93 0c-.057 0-.093.04-.102.099l-.274 2.154.274 2.105c.009.058.045.098.102.098.05 0 .094-.04.101-.098l.252-2.105-.252-2.154c-.007-.06-.044-.099-.101-.099m.942.006c-.058 0-.094.04-.101.099l-.252 2.104.252 2.105c.007.058.043.098.101.098.05 0 .096-.04.102-.098l.273-2.105-.273-2.152c-.006-.06-.052-.099-.102-.099m.894.006c-.05 0-.096.04-.102.098l-.273 2.105.273 2.104c.006.058.052.098.102.098.051 0 .094-.04.101-.098l.254-2.104-.254-2.154c-.007-.06-.043-.099-.101-.099m.93 0c-.058 0-.093.04-.101.099l-.254 2.154.254 2.105c.008.058.043.098.101.098.05 0 .096-.04.102-.098l.273-2.105-.273-2.154c-.006-.06-.051-.099-.102-.099m.93 0c-.057 0-.094.04-.102.099l-.273 2.154.273 2.105c.01.058.045.098.102.098.049 0 .094-.04.099-.098l.255-2.105-.255-2.154c-.005-.06-.042-.099-.099-.099m.918.004c-.057 0-.09.04-.099.099l-.255 2.154.255 2.105c.009.058.042.098.099.098.051 0 .096-.04.102-.098l.27-2.105-.27-2.154c-.006-.06-.045-.099-.102-.099m.93 0c-.058 0-.093.04-.102.099l-.27 2.154.27 2.105c.009.058.044.098.102.098.05 0 .094-.04.101-.098l.254-2.105-.254-2.154c-.007-.06-.043-.099-.101-.099m.93 0c-.057 0-.094.04-.101.099l-.254 2.154.254 2.105c.008.058.043.098.101.098.05 0 .096-.04.102-.098l.27-2.105-.27-2.154c-.006-.06-.051-.099-.102-.099m.93 0c-.058 0-.093.04-.102.099l-.27 2.154.27 2.105c.009.058.045.098.102.098.049 0 .094-.04.099-.098l.255-2.105-.255-2.154c-.005-.06-.042-.099-.099-.099m.918.004c-.057 0-.09.04-.099.099l-.255 2.154.255 2.105c.009.058.042.098.099.098.051 0 .096-.04.102-.098l.27-2.105-.27-2.154c-.006-.06-.045-.099-.102-.099m.93 0c-.058 0-.093.04-.102.099l-.27 2.154.27 2.105c.009.058.044.098.102.098.05 0 .094-.04.101-.098l.254-2.105-.254-2.154c-.007-.06-.043-.099-.101-.099m.93 0c-.057 0-.094.04-.101.099l-.254 2.154.254 2.105c.008.058.043.098.101.098.05 0 .096-.04.102-.098l.27-2.105-.27-2.154c-.006-.06-.051-.099-.102-.099m.93 0c-.058 0-.093.04-.102.099l-.27 2.154.27 2.105c.009.058.045.098.102.098.049 0 .094-.04.099-.098l.255-2.105-.255-2.154c-.005-.06-.042-.099-.099-.099m.918.004c-.057 0-.09.04-.099.099l-.255 2.154.255 2.105c.009.058.042.098.099.098.051 0 .096-.04.102-.098l.27-2.105-.27-2.154c-.006-.06-.045-.099-.102-.099m.93 0c-.058 0-.093.04-.102.099l-.27 2.154.27 2.105c.009.058.044.098.102.098.05 0 .094-.04.101-.098l.254-2.105-.254-2.154c-.007-.06-.043-.099-.101-.099m.93 0c-.057 0-.094.04-.101.099l-.254 2.154.254 2.105c.008.058.043.098.101.098.05 0 .096-.04.102-.098l.27-2.105-.27-2.154c-.006-.06-.051-.099-.102-.099m.93 0c-.058 0-.093.04-.102.099l-.27 2.154.27 2.105c.009.058.045.098.102.098.049 0 .094-.04.099-.098l.255-2.105-.255-2.154c-.005-.06-.042-.099-.099-.099m.918.004c-.057 0-.09.04-.099.099l-.255 2.154.255 2.105c.009.058.042.098.099.098.051 0 .096-.04.102-.098l.27-2.105-.27-2.154c-.006-.06-.045-.099-.102-.099"/></svg>
